<?xml version="1.0" encoding="UTF-8"?>
<svg version="1.1" xmlns="http://www.w3.org/2000/svg" width="259" height="194">
<path d="M0 0 C85.47 0 170.94 0 259 0 C259 64.02 259 128.04 259 194 C173.53 194 88.06 194 0 194 C0 129.98 0 65.96 0 0 Z " fill="#FEFEFE" transform="translate(0,0)"/>
<path d="M0 0 C0.96002426 -0.0065712 1.92004852 -0.0131424 2.90916443 -0.01991272 C6.08047572 -0.03959301 9.25173976 -0.05129691 12.4230957 -0.0612793 C14.05237975 -0.06739259 14.05237975 -0.06739259 15.71457863 -0.07362938 C21.46433953 -0.09446814 27.21407672 -0.10877909 32.96386719 -0.11816406 C38.88740827 -0.12922093 44.81057295 -0.1636192 50.73398113 -0.20333576 C55.30235978 -0.22954163 59.87064926 -0.23785947 64.43909645 -0.24144554 C66.62186028 -0.24630156 68.80462039 -0.25788727 70.98731041 -0.27648354 C74.05043348 -0.30095803 77.11258936 -0.29989455 80.17578125 -0.29296875 C81.06704712 -0.30577881 81.95831299 -0.31858887 82.87658691 -0.33178711 C92.56863381 -0.25241817 101.43038939 3.39118179 108.41137695 10.17700195 C114.3581712 17.56666919 117.97636473 25.00216434 117.78637695 34.55200195 C117.77405029 35.30296143 117.76172363 36.0539209 117.74902344 36.82763672 C117.44687267 46.81593954 114.912167 52.25579976 108.15356445 59.7199707 C101.37079072 65.79741326 93.52830151 69.85528784 85.34887695 73.73950195 C84.28612549 74.24690918 83.22337402 74.75431641 82.12841797 75.27709961 C68.14888829 81.84331828 53.8039939 87.5850484 39.41137695 93.17700195 C38.37197968 93.58118347 38.37197968 93.58118347 37.31158447 93.99353027 C35.19231378 94.81374896 33.07008044 95.62573893 30.9465332 96.43481445 C30.31009384 96.68061249 29.67365448 96.92641052 29.01792908 97.17965698 C20.83876476 100.2659097 13.37841723 101.54208212 4.66137695 101.48950195 C3.6870874 101.4838623 2.71279785 101.47822266 1.70898438 101.47241211 C-13.78218576 101.21136127 -25.98695068 96.40561584 -37.29956055 85.6496582 C-47.48274196 74.64973698 -51.24697225 61.94327314 -51.13183594 47.20874023 C-50.70710877 36.22761226 -46.42530139 26.69922081 -39.58862305 18.17700195 C-38.98791992 17.42805664 -38.3872168 16.67911133 -37.76831055 15.9074707 C-27.83480759 4.82198356 -14.54339202 0.04338401 0 0 Z " fill="#39594C" transform="translate(94.588623046875,11.822998046875)"/>
<path d="M0 0 C8.49996173 6.28508168 16.51815195 14.71699213 18.49609375 25.45703125 C19.31369666 38.23040132 18.66812127 49.33223253 10.1640625 59.62109375 C9.61363281 60.22695312 9.06320313 60.8328125 8.49609375 61.45703125 C7.95597656 62.06289062 7.41585937 62.66875 6.859375 63.29296875 C-2.21319974 72.30650287 -14.07354642 75.10897354 -26.41743469 75.11434937 C-28.07060573 75.09274675 -29.72367498 75.06108637 -31.37646484 75.01953125 C-33.89741019 74.9565691 -36.41584118 74.93748947 -38.9375 74.92578125 C-40.57164464 74.90745626 -42.20576431 74.88670951 -43.83984375 74.86328125 C-44.57753998 74.85478149 -45.31523621 74.84628174 -46.07528687 74.83752441 C-56.70008547 74.55066432 -65.55359261 71.85092243 -73.55078125 64.6015625 C-78.73441015 59.05242131 -82.73665868 52.12950698 -83.50390625 44.45703125 C-83.56707031 43.83699219 -83.63023438 43.21695313 -83.6953125 42.578125 C-84.19962562 33.48422067 -81.17208089 24.27526101 -75.2578125 17.32348633 C-69.30579492 10.98952553 -62.04953426 7.61846983 -54.12890625 4.33203125 C-52.66324219 3.70748047 -52.66324219 3.70748047 -51.16796875 3.0703125 C-48.28696589 1.84818496 -45.39750771 0.64898359 -42.50390625 -0.54296875 C-41.58706055 -0.92549805 -40.67021484 -1.30802734 -39.72558594 -1.70214844 C-38.85579102 -2.05954102 -37.98599609 -2.41693359 -37.08984375 -2.78515625 C-36.32462402 -3.10081543 -35.5594043 -3.41647461 -34.77099609 -3.74169922 C-23.33450676 -7.78375802 -10.27984548 -6.33469418 0 0 Z " fill="#D08EE1" transform="translate(196.50390625,108.54296875)"/>
<path d="M0 0 C7.5044784 4.19521188 12.25991769 10.13946045 15.36328125 18.12109375 C17.96587403 27.32762239 16.69301899 36.8567058 12.25 45.2578125 C6.91750362 53.15530714 -0.36010514 58.37983353 -9.75 60.2578125 C-18.51065362 61.08428926 -26.25694987 58.37888781 -33 52.859375 C-38.78278427 47.56709476 -42.70327868 41.72601249 -43.21875 33.76953125 C-43.25294675 32.16178824 -43.26266818 30.55336926 -43.25 28.9453125 C-43.24427979 28.10516602 -43.23855957 27.26501953 -43.23266602 26.39941406 C-42.98000297 17.61660823 -40.34086285 11.85484792 -34.4375 5.3828125 C-24.85413071 -3.50854107 -11.87602609 -5.44317862 0 0 Z " fill="#FE775A" transform="translate(86.75,122.7421875)"/>
</svg>
