<?xml version="1.0" encoding="UTF-8"?>
<svg version="1.1" xmlns="http://www.w3.org/2000/svg" width="500" height="500">
<path d="M0 0 C165 0 330 0 500 0 C500 165 500 330 500 500 C335 500 170 500 0 500 C0 335 0 170 0 0 Z " fill="#F2F2F1" transform="translate(0,0)"/>
<path d="M0 0 C71.61 0 143.22 0 217 0 C217 71.61 217 143.22 217 217 C145.39 217 73.78 217 0 217 C0 145.39 0 73.78 0 0 Z " fill="#FFBA08" transform="translate(261,261)"/>
<path d="M0 0 C71.61 0 143.22 0 217 0 C217 71.61 217 143.22 217 217 C145.39 217 73.78 217 0 217 C0 145.39 0 73.78 0 0 Z " fill="#05A6F0" transform="translate(22,261)"/>
<path d="M0 0 C71.61 0 143.22 0 217 0 C217 71.61 217 143.22 217 217 C145.39 217 73.78 217 0 217 C0 145.39 0 73.78 0 0 Z " fill="#81BC06" transform="translate(261,22)"/>
<path d="M0 0 C71.61 0 143.22 0 217 0 C217 71.61 217 143.22 217 217 C145.39 217 73.78 217 0 217 C0 145.39 0 73.78 0 0 Z " fill="#F35325" transform="translate(22,22)"/>
</svg>
