<?xml version="1.0" encoding="UTF-8"?>
<svg version="1.1" xmlns="http://www.w3.org/2000/svg" width="225" height="225">
<path d="M0 0 C74.25 0 148.5 0 225 0 C225 74.25 225 148.5 225 225 C150.75 225 76.5 225 0 225 C0 150.75 0 76.5 0 0 Z " fill="#FDFDFD" transform="translate(0,0)"/>
<path d="M0 0 C3.4741068 1.22836165 4.85035151 2.58462403 7.20703125 5.3984375 C7.97015625 6.29691406 8.73328125 7.19539062 9.51953125 8.12109375 C10.30328125 9.07886719 11.08703125 10.03664062 11.89453125 11.0234375 C12.69890625 11.99152344 13.50328125 12.95960938 14.33203125 13.95703125 C17.89647467 18.27774638 21.39839771 22.64737821 24.89453125 27.0234375 C23.30211717 31.32295553 20.539124 33.42015697 16.89453125 36.0234375 C12.79995846 34.6585799 11.1778584 31.80589465 8.70703125 28.4609375 C8.24361328 27.84541016 7.78019531 27.22988281 7.30273438 26.59570312 C6.160299 25.07638185 5.02656968 23.55052123 3.89453125 22.0234375 C2.19595887 29.34994637 0.51285044 36.67875809 -1.10546875 44.0234375 C-5.26685138 44.10503324 -9.05271715 44.00592274 -13.10546875 43.0234375 C-12.55881995 34.84255544 -10.93423007 27.00557811 -9.10546875 19.0234375 C-9.81678955 19.47783203 -9.81678955 19.47783203 -10.54248047 19.94140625 C-12.68554496 21.30674996 -14.83292013 22.66515889 -16.98046875 24.0234375 C-17.72683594 24.50039062 -18.47320312 24.97734375 -19.2421875 25.46875 C-20.31533203 26.14550781 -20.31533203 26.14550781 -21.41015625 26.8359375 C-22.06999512 27.25488281 -22.72983398 27.67382812 -23.40966797 28.10546875 C-25.10546875 29.0234375 -25.10546875 29.0234375 -27.10546875 29.0234375 C-27.99981032 27.61890107 -28.87040067 26.19921881 -29.73046875 24.7734375 C-30.21773438 23.98453125 -30.705 23.195625 -31.20703125 22.3828125 C-32.10546875 20.0234375 -32.10546875 20.0234375 -31.44775391 18.05566406 C-29.77737686 15.52670472 -28.17810211 14.60383643 -25.52734375 13.1484375 C-24.61339844 12.63796875 -23.69945313 12.1275 -22.7578125 11.6015625 C-21.80003906 11.08078125 -20.84226562 10.56 -19.85546875 10.0234375 C-17.97418558 8.98371328 -16.09394931 7.9420922 -14.21484375 6.8984375 C-13.32345703 6.40988281 -12.43207031 5.92132813 -11.51367188 5.41796875 C-9.4841625 4.24272974 -7.6717945 2.9997352 -5.80859375 1.5859375 C-3.10546875 0.0234375 -3.10546875 0.0234375 0 0 Z " fill="#201D1E" transform="translate(111.10546875,128.9765625)"/>
<path d="M0 0 C4.17569219 1.78636225 6.38645461 4.56709031 9.20703125 8.05078125 C10.04754028 9.05443726 10.04754028 9.05443726 10.9050293 10.07836914 C15.78983924 15.96429635 20.42297755 22.0335672 24.89453125 28.23828125 C22.4317448 31.39954705 20.22329906 33.97947452 16.89453125 36.23828125 C12.8112712 34.68720306 10.85426959 31.99999608 8.20703125 28.61328125 C6.78826952 26.80674012 5.35572251 25.01067957 3.89453125 23.23828125 C3.56453125 23.23828125 3.23453125 23.23828125 2.89453125 23.23828125 C1.57453125 30.16828125 0.25453125 37.09828125 -1.10546875 44.23828125 C-8.98046875 44.23828125 -8.98046875 44.23828125 -13.10546875 43.23828125 C-12.62484896 34.96830621 -11.09403446 27.27900348 -9.10546875 19.23828125 C-14.71546875 22.53828125 -20.32546875 25.83828125 -26.10546875 29.23828125 C-29.1485942 25.43437444 -31.10432918 22.54073133 -33.10546875 18.23828125 C-32.48091797 17.87065674 -31.85636719 17.50303223 -31.21289062 17.12426758 C-28.34310149 15.43420393 -25.47428014 13.742504 -22.60546875 12.05078125 C-21.13207031 11.18356445 -21.13207031 11.18356445 -19.62890625 10.29882812 C-18.66210938 9.72841797 -17.6953125 9.15800781 -16.69921875 8.5703125 C-15.74402344 8.01037598 -14.78882812 7.45043945 -13.8046875 6.87353516 C-11.38996598 5.41063675 -9.08606945 3.84992807 -6.76171875 2.25 C-4.16858199 0.64727204 -3.14324485 0.24117979 0 0 Z " fill="#201D1E" transform="translate(132.10546875,10.76171875)"/>
<path d="M0 0 C2.3359375 1.80078125 2.3359375 1.80078125 4.375 4.3125 C5.12910156 5.22 5.88320312 6.1275 6.66015625 7.0625 C7.43230469 8.031875 8.20445312 9.00125 9 10 C9.80308594 10.969375 10.60617188 11.93875 11.43359375 12.9375 C15.00433412 17.25287753 18.50394489 21.62403888 22 26 C20.40758592 30.29951803 17.64459275 32.39671947 14 35 C9.9039234 33.63464113 8.28228864 30.78001968 5.8125 27.4375 C3.4303125 24.2509375 3.4303125 24.2509375 1 21 C-0.65 28.59 -2.3 36.18 -4 44 C-7.96 43.34 -11.92 42.68 -16 42 C-15.30820937 34.27500463 -14.23600225 26.65601392 -13 19 C-14.05960938 19.6496875 -15.11921875 20.299375 -16.2109375 20.96875 C-17.59881775 21.81273123 -18.98684629 22.65646864 -20.375 23.5 C-21.07367188 23.92925781 -21.77234375 24.35851562 -22.4921875 24.80078125 C-27.7734375 28 -27.7734375 28 -30 28 C-30.89434157 26.59546357 -31.76493192 25.17578131 -32.625 23.75 C-33.11226563 22.96109375 -33.59953125 22.1721875 -34.1015625 21.359375 C-35 19 -35 19 -34.40844727 17.08203125 C-31.54379343 12.84736877 -26.48286965 10.77742548 -22.12524414 8.28955078 C-20.3251302 7.25724302 -18.54261582 6.19849633 -16.75976562 5.13671875 C-15.61830078 4.47800781 -14.47683594 3.81929688 -13.30078125 3.140625 C-12.26091064 2.53766602 -11.22104004 1.93470703 -10.1496582 1.31347656 C-6.50105289 -0.20807189 -3.91769962 -0.37203588 0 0 Z " fill="#201D1E" transform="translate(124,73)"/>
<path d="M0 0 C2.15243963 3.8690484 4.28799581 7.74680151 6.40869141 11.63330078 C7.13170786 12.95284624 7.85919876 14.26995062 8.59130859 15.58447266 C9.64579624 17.47968106 10.68362539 19.38322463 11.71875 21.2890625 C12.34716797 22.43068848 12.97558594 23.57231445 13.62304688 24.74853516 C15.06793299 28.1604134 15.37597969 30.33942457 15 34 C13.85546875 35.80078125 13.85546875 35.80078125 12.1875 37.3125 C11.23230469 38.18841797 11.23230469 38.18841797 10.2578125 39.08203125 C6.78851824 42.0291307 3.27985365 44.92235196 -0.265625 47.77734375 C-3.92979118 50.7557874 -7.47511848 53.85891647 -11 57 C-13.66666667 54.33333333 -16.33333333 51.66666667 -19 49 C-17.45228201 44.94071568 -14.81099911 43.00518575 -11.4375 40.375 C-7.66438611 37.64991295 -7.66438611 37.64991295 -5 34 C-5.67804688 33.95101562 -6.35609375 33.90203125 -7.0546875 33.8515625 C-13.49299341 33.33435787 -19.69732977 32.40818879 -26 31 C-26.02712066 29.56260487 -26.04645067 28.12506137 -26.0625 26.6875 C-26.07410156 25.88699219 -26.08570313 25.08648437 -26.09765625 24.26171875 C-26 22 -26 22 -25 19 C-17.55769906 19.54701632 -10.31839056 20.54198409 -3 22 C-3.58910156 20.95199219 -4.17820313 19.90398437 -4.78515625 18.82421875 C-5.54480087 17.44560443 -6.30388656 16.06668202 -7.0625 14.6875 C-7.64741211 13.65206055 -7.64741211 13.65206055 -8.24414062 12.59570312 C-9.24037483 10.77074312 -10.12752842 8.88726123 -11 7 C-9.88809524 3.66428571 -9.53679327 3.41582921 -6.625 1.8125 C-6.01914063 1.46832031 -5.41328125 1.12414062 -4.7890625 0.76953125 C-3 0 -3 0 0 0 Z " fill="#201D1E" transform="translate(187,109)"/>
<path d="M0 0 C3.07954532 1.82848003 4.82740334 4.35105436 7 7.1875 C5.43407271 11.22495108 2.5556196 13.65964214 -0.625 16.4375 C-2.39875 18.005 -4.1725 19.5725 -6 21.1875 C4.395 23.1675 4.395 23.1675 15 25.1875 C14.67 29.1475 14.34 33.1075 14 37.1875 C6.6456045 36.64559717 -0.67722225 36.05630414 -8 35.1875 C-7.4225 36.16332031 -6.845 37.13914063 -6.25 38.14453125 C-5.49965977 39.42948889 -4.7496784 40.71465612 -4 42 C-3.6184375 42.64259766 -3.236875 43.28519531 -2.84375 43.94726562 C0 48.84765625 0 48.84765625 0 52.1875 C-6.5 56.1875 -6.5 56.1875 -11 56.1875 C-13.12953385 52.45861938 -15.24697739 48.72320611 -17.35375977 44.98144531 C-18.07122298 43.7110554 -18.79188516 42.44246637 -19.51586914 41.17578125 C-20.55953718 39.34846433 -21.59130242 37.51485232 -22.62109375 35.6796875 C-23.2442749 34.57995605 -23.86745605 33.48022461 -24.50952148 32.34716797 C-26.00259553 29.18199772 -26.75026401 26.67043067 -27 23.1875 C-25.515625 20.94921875 -25.515625 20.94921875 -23.25 18.875 C-22.425 18.11058594 -21.6 17.34617187 -20.75 16.55859375 C-17.08825082 13.40137535 -13.3730085 10.32408566 -9.578125 7.328125 C-6.89640936 5.17522745 -6.89640936 5.17522745 -4.296875 2.43359375 C-2 0.1875 -2 0.1875 0 0 Z " fill="#201D1E" transform="translate(49,84.8125)"/>
<path d="M0 0 C0 3.96 0 7.92 0 12 C-6.27 12 -12.54 12 -19 12 C-17.618125 13.711875 -16.23625 15.42375 -14.8125 17.1875 C-13.64654297 18.63189453 -13.64654297 18.63189453 -12.45703125 20.10546875 C-10.0492785 23.06597964 -10.0492785 23.06597964 -7.13671875 25.61328125 C-5 28 -5 28 -4.93359375 30.109375 C-6.29153714 32.51686437 -7.8014875 33.67088016 -10.0625 35.25 C-11.16271484 36.03117187 -11.16271484 36.03117187 -12.28515625 36.828125 C-12.85105469 37.21484375 -13.41695312 37.6015625 -14 38 C-15.39727951 36.45964394 -16.79274837 34.91764536 -18.1875 33.375 C-18.96480469 32.51648438 -19.74210937 31.65796875 -20.54296875 30.7734375 C-23.08810183 27.90055279 -25.54289513 24.94852584 -28 22 C-29.32 27.94 -30.64 33.88 -32 40 C-35.96 39.67 -39.92 39.34 -44 39 C-43.07234223 30.15063313 -41.82472379 21.41218606 -40.0625 12.6875 C-39.90491211 11.86983154 -39.74732422 11.05216309 -39.58496094 10.2097168 C-39.34374512 9.05983276 -39.34374512 9.05983276 -39.09765625 7.88671875 C-38.95851807 7.20826904 -38.81937988 6.52981934 -38.67602539 5.83081055 C-37.84570088 3.58212746 -36.86438105 2.49195695 -35 1 C-32.12890625 0.48828125 -32.12890625 0.48828125 -28.5625 0.3125 C-27.92304443 0.27906494 -27.28358887 0.24562988 -26.62475586 0.21118164 C-17.75865828 -0.19292012 -8.87221398 -0.08106591 0 0 Z " fill="#201D1E" transform="translate(95,40)"/>
<path d="M0 0 C4.32106735 0.86421347 7.57197611 1.96233162 11.578125 3.6875 C12.19016785 3.95006592 12.80221069 4.21263184 13.43280029 4.4831543 C14.71790632 5.03563209 16.00201198 5.59044207 17.28515625 6.14746094 C19.25544142 7.00236101 21.22897233 7.8493871 23.203125 8.6953125 C32.85236383 12.85236383 32.85236383 12.85236383 34 14 C34.48357221 22.07392887 32.99752386 29.64990773 31.5 37.5625 C31.26152344 38.85736328 31.02304688 40.15222656 30.77734375 41.48632812 C30.1920036 44.65887172 29.59697704 47.82962552 29 51 C25.04 50.34 21.08 49.68 17 49 C17.30872329 46.39533457 17.62181723 43.79132309 17.9375 41.1875 C18.02451172 40.44951172 18.11152344 39.71152344 18.20117188 38.95117188 C18.58216546 35.83266879 19.00369374 32.98891878 20 30 C19.47043701 30.3081665 18.94087402 30.61633301 18.39526367 30.93383789 C15.99862314 32.32064764 13.59331843 33.69167897 11.1875 35.0625 C10.35412109 35.54783203 9.52074219 36.03316406 8.66210938 36.53320312 C7.85966797 36.98759766 7.05722656 37.44199219 6.23046875 37.91015625 C5.49207764 38.33433838 4.75368652 38.75852051 3.99291992 39.19555664 C2 40 2 40 -1 39 C-2.16796875 37.4765625 -2.16796875 37.4765625 -3.1875 35.625 C-3.70376953 34.71621094 -3.70376953 34.71621094 -4.23046875 33.7890625 C-5 32 -5 32 -5 29 C0.94 25.7 6.88 22.4 13 19 C8.15579433 16.78148471 8.15579433 16.78148471 3.30712891 14.57275391 C0.49225729 13.27156092 -1.79043347 12.20956653 -4 10 C-2.68 6.7 -1.36 3.4 0 0 Z " fill="#1F1C1D" transform="translate(157,51)"/>
<path d="M0 0 C3.50675518 3.24937865 6.09418385 6.81465309 8.75 10.75 C10.85375 13.84375 10.85375 13.84375 13 17 C14.65 11.39 16.3 5.78 18 0 C25.875 1.125 25.875 1.125 30 3 C28.0170841 11.33046234 25.9200058 19.61520708 23.4375 27.8125 C23.24003174 28.48732422 23.04256348 29.16214844 22.83911133 29.85742188 C21.76302767 33.32711608 20.88065941 35.74235711 18 38 C15.01295897 38.08405744 12.27382774 37.99947632 9.3125 37.75 C8.47485107 37.69207275 7.63720215 37.63414551 6.77416992 37.57446289 C5.04040538 37.4538603 3.30707081 37.32691982 1.57421875 37.19384766 C-1.63282595 36.952346 -4.84166709 36.75721684 -8.05200195 36.56542969 C-11.03529862 36.38671156 -14.01762067 36.19334045 -17 36 C-17.14285714 27.42857143 -17.14285714 27.42857143 -16 24 C-14.52094768 23.97220987 -13.04172942 23.95326044 -11.5625 23.9375 C-10.73878906 23.92589844 -9.91507813 23.91429687 -9.06640625 23.90234375 C-5.01356118 24.03141525 -1.02287733 24.50870271 3 25 C2.66677734 24.53625977 2.33355469 24.07251953 1.99023438 23.59472656 C0.48369332 21.48662261 -1.00820851 19.36856383 -2.5 17.25 C-3.02464844 16.52039063 -3.54929688 15.79078125 -4.08984375 15.0390625 C-4.58613281 14.33007812 -5.08242187 13.62109375 -5.59375 12.890625 C-6.05458984 12.24125977 -6.51542969 11.59189453 -6.99023438 10.92285156 C-8 9 -8 9 -8 5 C-6.25 3.515625 -6.25 3.515625 -4 2.25 C-3.2575 1.82203125 -2.515 1.3940625 -1.75 0.953125 C-1.1725 0.63859375 -0.595 0.3240625 0 0 Z " fill="#201D1E" transform="translate(144,170)"/>
<path d="M0 0 C3.96 0.33 7.92 0.66 12 1 C12.10353641 7.41925741 11.72445775 13.6243157 11 20 C11.46897705 19.67201416 11.9379541 19.34402832 12.42114258 19.00610352 C14.54898237 17.52111721 16.68067692 16.04176158 18.8125 14.5625 C19.55048828 14.04623047 20.28847656 13.52996094 21.04882812 12.99804688 C21.76103516 12.50498047 22.47324219 12.01191406 23.20703125 11.50390625 C23.8616333 11.04830322 24.51623535 10.5927002 25.19067383 10.12329102 C27 9 27 9 30 8 C31.98 10.97 33.96 13.94 36 17 C32.50164156 20.70605319 28.99149936 23.52199492 24.6875 26.3125 C23.61886719 27.00988281 22.55023438 27.70726562 21.44921875 28.42578125 C20.64097656 28.94527344 19.83273438 29.46476562 19 30 C24.62518091 32.14779635 30.27872186 34.12270561 36 36 C35.34 39.3 34.68 42.6 34 46 C28.17494895 47.45626276 23.62795525 45.52510796 17.95507812 43.87719727 C16.01091314 43.31565211 14.06100816 42.77906732 12.109375 42.24414062 C10.87703125 41.89158203 9.6446875 41.53902344 8.375 41.17578125 C6.68503906 40.69492065 6.68503906 40.69492065 4.9609375 40.2043457 C1.75830153 38.90169042 0.10234158 37.73085047 -2 35 C-2.16066667 32.10496841 -2.10325862 29.66429932 -1.8125 26.8125 C-1.68457296 25.20705694 -1.55697769 23.60158742 -1.4296875 21.99609375 C-1.35717773 21.1747998 -1.28466797 20.35350586 -1.20996094 19.50732422 C-0.87169954 15.46785377 -0.65992088 11.42219627 -0.4375 7.375 C-0.35361783 5.94526811 -0.26905477 4.51557589 -0.18359375 3.0859375 C-0.12300781 2.06757813 -0.06242187 1.04921875 0 0 Z " fill="#201D1E" transform="translate(38,148)"/>
<path d="M0 0 C3.07469523 1.70251719 5.40613254 3.81226508 7 7 C7.34717992 12.29449372 7.52421718 15.74663444 4 20 C1.28575479 22.12738138 -0.5239277 22.92909561 -3.9375 23.4375 C-7.92360781 22.86805603 -9.93107163 21.59153951 -13 19 C-15.38621552 15.53613876 -16.01149219 13.65505456 -15.9375 9.4375 C-14.91869576 5.70188446 -13.67878703 3.7599624 -11 1 C-7.51556578 -0.74221711 -3.80112955 -0.58675154 0 0 Z " fill="#201D1E" transform="translate(103,191)"/>
</svg>
